<svg width="138" height="42" viewBox="0 0 138 42" xmlns="http://www.w3.org/2000/svg"><path fill-rule="evenodd" clip-rule="evenodd" d="M84.204 23.419c0 1.77.004 3.539-.001 5.309-.004 1.31-.273 1.578-1.586 1.582-1.345.006-2.69-.005-4.035.003-.89.005-1.321-.392-1.32-1.272.006-7.654.006-15.31-.001-22.964-.001-.89.472-1.266 1.337-1.27 1.344-.004 2.69-.011 4.034.001 1.264.012 1.568.308 1.57 1.527.005 3.875.002 7.75.002 11.625v.91l.196.056c.864-1.506 1.851-2.96 2.56-4.531.808-1.789 1.968-2.292 4.03-2.306 1.257-.008 2.161.01 3.243.032 1.242.027 1.493.442.857 1.473a371.498 371.498 0 01-4.342 6.904c-.349.539-.316.906.042 1.423a305.74 305.74 0 014.548 6.782c.221.338.442.905.293 1.176-.147.27-.758.402-1.172.414-1.507.047-3.018-.005-4.526.028-.85.02-1.413-.308-1.84-1.013-1.21-1.992-2.459-3.963-3.692-5.943l-.197.054"></path><path fill-rule="evenodd" clip-rule="evenodd" d="M135.792 26.907l-1.681.346s.007 1.285-.001 1.837c-.015 1.018-.213 1.216-1.232 1.221a288.67 288.67 0 01-3.457 0c-.924-.006-1.169-.24-1.181-1.114-.008-.579-.001-1.158-.001-1.806-.333-.017-.61-.043-.886-.044-2.305-.003-4.61.005-6.915-.005-1.136-.004-1.245-.204-1.343-1.285-.24-2.653.352-5.061 1.705-7.404 1.45-2.512 2.651-5.16 3.919-7.769.326-.669.792-.954 1.524-.949 1.441.01 2.881-.006 4.322.006 1.056.008 1.281.352.82 1.267-1.695 3.364-3.401 6.723-5.101 10.084-.113.223-.246.512-.387.81.775 0 1.503-.006 2.328-.006 0-.63.008-1.333.015-1.981.01-.9.222-1.12 1.163-1.134 1.205-.018 2.41.003 3.615-.007.746-.006 1.116.313 1.095 1.054-.018.655-.002 2.08-.002 2.08h1.558c.326 0 .591.256.591.572v3.667c0 .27-.195.504-.468.56"></path><path fill-rule="evenodd" clip-rule="evenodd" d="M43.901 24.575c-1.737 0-3.145-1.42-3.145-3.17 0-1.752 1.408-3.171 3.145-3.171s3.146 1.42 3.146 3.17c0 1.751-1.409 3.17-3.146 3.17m0-12.65c-5.416 0-9.807 4.252-9.807 9.496 0 5.244 4.39 9.496 9.807 9.496 5.417 0 9.808-4.252 9.808-9.496 0-5.244-4.391-9.496-9.808-9.496"></path><path fill-rule="evenodd" clip-rule="evenodd" d="M65.227 24.575c-1.738 0-3.146-1.42-3.146-3.17 0-1.752 1.408-3.171 3.145-3.171 1.738 0 3.146 1.42 3.146 3.17 0 1.751-1.408 3.17-3.145 3.17m0-12.65c-5.417 0-9.808 4.252-9.808 9.496 0 5.244 4.391 9.496 9.808 9.496 5.416 0 9.807-4.252 9.807-9.496 0-5.244-4.391-9.496-9.808-9.496"></path><path fill-rule="evenodd" clip-rule="evenodd" d="M108.639 9.533a8.265 8.265 0 012.763.122c.223.047.444.098.663.158 4.622 1.266 6.467 5.92 3.845 9.838-.72 1.075-1.658 2.017-2.53 2.992-.582.651-1.223 1.252-1.925 1.963.29.03.477.066.664.067 1.39.005 2.78-.005 4.17.005.591.005 1.082.473 1.092 1.046.021 1.19.003 2.381.004 3.572.002.687-.333 1.02-1.057 1.02-4.349-.007-8.699 0-13.048-.008-.813-.002-1.05-.262-1.075-1.065 0-.025.003-.051-.001-.076-.323-2.136.339-3.814 2.064-5.298 1.892-1.628 3.528-3.536 5.265-5.332.429-.443.854-.898 1.211-1.395.497-.69.426-1.399-.102-1.768-.581-.406-1.702-.338-2.062.241-.093.15-.18.307-.254.45a.97.97 0 01-.858.52l-1.15.002c-.943 0-1.921.005-2.88.005-1.036 0-1.327-.356-1.154-1.321.582-3.26 2.628-5.18 6.03-5.693.115-.017.223-.032.325-.045"></path><path fill-rule="evenodd" clip-rule="evenodd" d="M30.409 37.174H14.133v1.97h16.276c.537 0 .973-.468.973-.986 0-.517-.436-.984-.973-.984" fill="#FF6564"></path><path fill-rule="evenodd" clip-rule="evenodd" d="M30.184.116H3.779C1.727.116 0 1.745 0 3.72L.05 36.1l-.002.11c0 1.584 1.347 2.933 2.63 2.933h2.715v-1.969H2.678c-.204 0-.672-.434-.672-.985 0-.55.468-.984 1.044-.984h27.165c.644 0 1.213-.543 1.213-1.164V1.282c0-.635-.585-1.166-1.244-1.166" fill="#FF6564"></path><path fill-rule="evenodd" clip-rule="evenodd" d="M6.322 36.279v5.613l3.476-2.623 3.405 2.623v-5.613h-6.88z" fill="#FF6564"></path><path fill-rule="evenodd" clip-rule="evenodd" d="M17.99 11.98c1.774 0 3.344.54 4.622 1.47 2.217 1.612 3.557 4.306 3.557 7.466 0 .074-.001.1-.003.15l-.002.06c-.153 4.871-3.8 8.529-8.861 8.529H7.52c-.67 0-.9-.235-.9-1.022-.006-4.293.007-8.62.02-12.939.01-2.947.02-5.892.023-8.82 0-.95.313-1.227 1.31-1.233 1.317-.009 2.633-.007 3.95 0 1.013.004 1.339.312 1.342 1.28.004 1.505.003 3.009.002 4.55v1.928a7.342 7.342 0 012.4-1.097 8.556 8.556 0 012.323-.322zm-1.64 11.939c.85 0 2.066-.05 2.914-.867a1.94 1.94 0 00.005-2.822c-.432-.417-1-.601-1.564-.571.029-.546-.172-1.1-.605-1.517a2.134 2.134 0 00-2.936 0c-.848.816-.897 1.994-.893 2.813.007 1.204 0 2.234-.002 2.71l-.001.256h.262l2.82-.002z" fill="#FCEE21"></path></svg>